<svg xmlns="http://www.w3.org/2000/svg" width="33" height="34" viewBox="0 0 33 34">
    <g fill="none" fill-rule="evenodd">
        <g>
            <g>
                <g>
                    <g>
                        <g>
                            <path stroke="#5E40E0" stroke-linecap="round" stroke-linejoin="round" stroke-width="1.563" d="M21.032 16.401L21.032 5.74 0 5.74 0 31.637 19.551 31.637" transform="translate(-39 -660) translate(-62 -118) translate(86 666) translate(0 93) translate(16.597 19.94)"/>
                            <path stroke="#5E40E0" stroke-linecap="round" stroke-linejoin="round" stroke-width="1.563" d="M8.974 2.684L8.974 0 30.212 0 30.212 24.581 26.904 24.581M3.353 10.195L9.471 10.195M3.353 15.169L11.931 15.169M3.353 20.142L9.471 20.142M23.464 3.958L26.904 3.958M23.579 8.932L26.904 8.932M23.579 13.905L26.904 13.905" transform="translate(-39 -660) translate(-62 -118) translate(86 666) translate(0 93) translate(16.597 19.94)"/>
                            <path fill="#5E40E0" fill-opacity=".6" fill-rule="nonzero" d="M21.819 25.9v-1.4c0-.13.073-.25.188-.31s.255-.051.361.023l5.055 3.549c.092.066.147.172.147.285 0 .114-.055.22-.148.285l-5.053 3.546c-.107.074-.245.083-.36.023-.116-.059-.188-.177-.19-.306v-1.4c0-.194-.157-.35-.35-.35h-4.655c-.193 0-.35-.157-.35-.35v-2.902c0-.193.157-.35.35-.35h4.655c.19 0 .346-.152.35-.343zM13.36 21.01l5.053-3.545c.107-.074.245-.083.36-.023.116.059.188.177.19.306v1.4c0 .194.157.35.35.35h4.655c.193 0 .35.157.35.35v2.899c0 .193-.157.35-.35.35h-4.655c-.193 0-.35.156-.35.35v1.4c-.002.129-.074.247-.19.306-.115.06-.253.05-.36-.023l-5.053-3.542c-.096-.065-.153-.173-.153-.289 0-.115.057-.223.152-.288z" transform="translate(-39 -660) translate(-62 -118) translate(86 666) translate(0 93) translate(16.597 19.94)"/>
                        </g>
                    </g>
                </g>
            </g>
        </g>
    </g>
</svg>
