<svg xmlns="http://www.w3.org/2000/svg" width="36" height="40" viewBox="0 0 36 40">
    <g fill="none" fill-rule="evenodd">
        <g>
            <g>
                <g>
                    <g>
                        <g>
                            <path stroke="#5E40E0" stroke-linecap="round" stroke-linejoin="round" stroke-width="1.423" d="M4.256 13.629L18.834.315 33.411 13.629M7.038 22.344L7.038 15.48M30.517 15.48L30.517 22.858M30.058 7.217L30.058 0 25.364 0 25.364 2.663M16.03 13.398L23.058 13.398M16.03 11.105L23.058 11.105" transform="translate(-37 -993) translate(-62 -118) translate(86 666) translate(0 429) translate(13.097 16.821)"/>
                            <path stroke="#5E40E0" stroke-linecap="round" stroke-linejoin="round" stroke-width="1.423" d="M17.934 11.081c1.678 0 3.038 1.36 3.038 3.038 0 1.678-1.36 3.038-3.038 3.038h-1.596l4.711 4.221" transform="translate(-37 -993) translate(-62 -118) translate(86 666) translate(0 429) translate(13.097 16.821)"/>
                            <path fill="#9684E6" fill-rule="nonzero" d="M0 30.688c1.466-1.62 2.877-3.227 4.34-4.784.79-.805 1.81-1.347 2.919-1.551l8.998-1.96c.57-.175 1.19-.02 1.61.402.42.422.572 1.042.396 1.61-.177.57-.654.993-1.239 1.103-1.05.297-2.132.567-3.192.861-.666.14-1.15.72-1.166 1.4 0 .635.415 1.195 1.022 1.379.176.047.358.068.54.063 3.409-.07 6.818-.14 10.226-.234.33-.016.647-.124.918-.312 1.791-1.267 3.559-2.566 5.337-3.85 1.044-.766 2.442-.841 3.563-.193-.123.074-.24.158-.35.249-2.74 2.552-5.467 5.124-8.225 7.655-1.096.982-2.526 1.507-3.997 1.466-2.8 0-5.565 0-8.344.077-2.278.052-4.446.984-6.051 2.6-.483.463-.956.939-1.484 1.457C1.466 36.67 0 33.992 0 30.688z" transform="translate(-37 -993) translate(-62 -118) translate(86 666) translate(0 429) translate(13.097 16.821)"/>
                        </g>
                    </g>
                </g>
            </g>
        </g>
    </g>
</svg>
